<svg width="220" height="120" viewBox="0 0 220 120" fill="none" xmlns="http://www.w3.org/2000/svg" role="img" aria-label="FILO Constructora">
  <path d="M56 48L110 24L164 48" stroke="white" stroke-width="5" stroke-linecap="round" stroke-linejoin="round"/>
  <path d="M70 48V34H89V48" stroke="white" stroke-width="4" stroke-linejoin="round"/>
  <path d="M99 48V22H121V48" stroke="white" stroke-width="4" stroke-linejoin="round"/>
  <path d="M131 48V34H150V48" stroke="white" stroke-width="4" stroke-linejoin="round"/>
  <path d="M46 54C84 48 125 48 174 54" stroke="white" stroke-width="4" stroke-linecap="round"/>
  <path d="M39 92V63H79V72H52V76H75V84H52V92H39Z" fill="white"/>
  <path d="M86 92V63H99V92H86Z" fill="white"/>
  <path d="M107 92V63H120V82H148V92H107Z" fill="white"/>
  <path d="M172 93C157 93 149 87 149 77.5C149 68 157 62 172 62C187 62 195 68 195 77.5C195 87 187 93 172 93ZM172 84C179 84 182 82 182 77.5C182 73 179 71 172 71C165 71 162 73 162 77.5C162 82 165 84 172 84Z" fill="white"/>
  <path d="M66 107H154" stroke="white" stroke-width="2" stroke-linecap="round" opacity="0.88"/>
  <text x="110" y="116" text-anchor="middle" fill="white" font-family="Arial, Helvetica, sans-serif" font-size="9" font-weight="700" letter-spacing="3">CONSTRUCTORA</text>
</svg>
